<?xml version="1.0" encoding="UTF-8"?>
<svg xmlns="http://www.w3.org/2000/svg" xmlns:xlink="http://www.w3.org/1999/xlink" width="119pt" height="43pt" viewBox="0 0 119 43" version="1.1">
<g id="surface1">
<path style=" stroke:none;fill-rule:nonzero;fill:rgb(96.470588%,25.098039%,37.647059%);fill-opacity:1;" d="M 70.023438 23.007812 C 69.863281 23.257812 69.757812 23.425781 69.644531 23.589844 C 68.582031 25.121094 67.386719 26.519531 65.761719 27.484375 C 63.582031 28.785156 61.21875 29.316406 58.757812 28.78125 C 57.496094 28.503906 56.316406 27.792969 55.128906 27.226562 C 54.855469 27.09375 54.707031 27.09375 54.464844 27.238281 C 53.441406 27.839844 52.449219 28.519531 51.371094 28.992188 C 49.449219 29.824219 47.429688 30.296875 45.34375 29.738281 C 44.035156 29.390625 42.902344 28.648438 41.882812 27.757812 C 41.15625 27.125 41.109375 27.125 40.371094 27.734375 C 39.050781 28.828125 37.527344 29.535156 35.929688 30.117188 C 33.941406 30.84375 31.902344 31.285156 29.8125 31.496094 C 27.261719 31.75 24.898438 31.3125 23.171875 29.203125 C 21.789062 27.515625 21.414062 25.554688 22.265625 23.515625 C 23.191406 21.285156 24.261719 19.117188 25.269531 16.917969 C 25.792969 15.773438 26.320312 14.628906 26.832031 13.476562 C 26.925781 13.265625 26.964844 13.019531 26.96875 12.785156 C 26.992188 12.355469 27.078125 11.886719 26.585938 11.628906 C 26.078125 11.367188 25.488281 11.414062 25.117188 11.882812 C 24.652344 12.472656 24.242188 13.117188 23.898438 13.78125 C 22.757812 15.988281 21.648438 18.214844 20.535156 20.433594 C 19.699219 22.097656 18.878906 23.769531 18.039062 25.429688 C 17.238281 27.003906 15.734375 27.609375 14.109375 26.992188 C 13.558594 26.785156 13.214844 26.378906 13.121094 25.761719 C 12.992188 24.882812 13.277344 24.097656 13.589844 23.308594 C 14.265625 21.589844 14.953125 19.875 15.625 18.15625 C 15.984375 17.234375 16.347656 16.308594 16.691406 15.378906 C 16.925781 14.726562 16.996094 14.035156 16.71875 13.398438 C 16.507812 12.90625 16.085938 12.546875 15.488281 12.601562 C 14.84375 12.660156 14.332031 13 14.085938 13.601562 C 13.230469 15.738281 12.40625 17.890625 11.554688 20.03125 C 10.546875 22.59375 9.550781 25.160156 8.496094 27.707031 C 8.105469 28.644531 7.519531 29.5 6.53125 29.902344 C 6.027344 30.109375 5.460938 30.234375 4.921875 30.242188 C 3.238281 30.265625 1.78125 29.699219 0.789062 28.261719 C 0 27.121094 -0.191406 25.847656 0.191406 24.5 C 0.542969 23.253906 0.894531 22.007812 1.265625 20.765625 C 1.617188 19.589844 1.988281 18.421875 2.351562 17.25 C 2.695312 16.15625 3.011719 15.058594 3.378906 13.980469 C 4.101562 11.847656 4.6875 9.65625 5.835938 7.699219 C 6.621094 6.363281 7.894531 5.640625 9.347656 5.191406 C 10.878906 4.726562 12.175781 5.3125 13.476562 5.964844 C 13.972656 6.210938 14.457031 6.476562 14.964844 6.691406 C 15.671875 6.988281 16.316406 6.804688 16.886719 6.332031 C 17.355469 5.949219 17.828125 5.566406 18.257812 5.144531 C 19.335938 4.085938 21.660156 3.890625 22.796875 5.121094 C 23.058594 5.40625 23.367188 5.644531 23.660156 5.898438 C 24.25 6.429688 24.496094 6.484375 25.183594 6.089844 C 26.824219 5.164062 28.519531 5.292969 30.183594 5.886719 C 31.152344 6.234375 31.730469 7.0625 32.101562 8.035156 C 32.644531 9.480469 32.414062 10.871094 31.871094 12.222656 C 30.871094 14.714844 29.777344 17.171875 28.800781 19.671875 C 28.21875 21.15625 27.730469 22.683594 27.3125 24.21875 C 27.144531 24.84375 27.144531 25.585938 27.300781 26.21875 C 27.539062 27.171875 28.410156 27.484375 29.289062 27.59375 C 30.625 27.765625 31.933594 27.515625 33.214844 27.160156 C 34.308594 26.855469 35.386719 26.484375 36.453125 26.09375 C 36.96875 25.90625 37.449219 25.617188 37.941406 25.367188 C 38.359375 25.15625 38.394531 24.839844 38.171875 24.445312 C 37.71875 23.640625 37.242188 22.847656 36.84375 22.015625 C 36 20.257812 35.304688 18.441406 35.492188 16.4375 C 35.652344 14.6875 36.285156 13.160156 37.890625 12.234375 C 40.265625 10.875 42.199219 11.25 43.945312 13.285156 C 45.453125 15.046875 45.953125 17.167969 45.304688 19.4375 C 44.941406 20.710938 44.421875 21.933594 43.925781 23.164062 C 43.789062 23.503906 43.871094 23.71875 44.082031 23.917969 C 45.085938 24.863281 46.226562 25.589844 47.492188 26.109375 C 47.96875 26.304688 48.472656 26.449219 48.980469 26.550781 C 50.066406 26.769531 51.078125 26.511719 51.984375 25.894531 C 52.417969 25.597656 52.425781 25.320312 52.125 24.910156 C 50.039062 22.046875 49.214844 18.867188 49.839844 15.367188 C 50.078125 14.054688 50.683594 12.820312 52.078125 12.4375 C 52.941406 12.207031 53.917969 12.21875 54.816406 12.332031 C 56.277344 12.519531 57.601562 13.105469 58.5 14.371094 C 59.574219 15.890625 59.847656 17.550781 59.382812 19.363281 C 59.050781 20.664062 58.371094 21.773438 57.625 22.851562 C 57.328125 23.277344 57.316406 23.675781 57.722656 23.957031 C 58.34375 24.394531 58.976562 24.878906 59.679688 25.132812 C 61.207031 25.683594 62.792969 25.640625 64.332031 25.140625 C 66.015625 24.597656 67.195312 23.472656 67.871094 21.804688 C 68.679688 19.8125 68.6875 17.722656 68.648438 15.625 C 68.613281 13.992188 68.558594 12.351562 68.507812 10.714844 C 68.496094 10.128906 68.398438 10.09375 67.84375 10.207031 C 66.382812 10.503906 64.914062 10.765625 63.453125 11.039062 C 62.988281 11.121094 62.523438 11.179688 62.058594 11.261719 C 61.054688 11.445312 60.21875 11.03125 60.164062 9.84375 C 60.105469 8.652344 59.933594 7.464844 59.8125 6.269531 C 59.804688 6.203125 59.800781 6.136719 59.796875 6.066406 C 59.726562 4.664062 60.066406 3.902344 61.738281 3.964844 C 63.46875 4.027344 65.195312 4.085938 66.921875 4.179688 C 67.773438 4.21875 68.070312 4.007812 68.125 3.160156 C 68.167969 2.5 68.1875 1.84375 68.226562 1.183594 C 68.289062 0.199219 68.511719 -0.0351562 69.507812 0.00390625 C 70.105469 0.0273438 70.699219 0.132812 71.285156 0.261719 C 72.101562 0.449219 72.535156 1.03125 72.59375 1.851562 C 72.640625 2.523438 72.617188 3.199219 72.605469 3.875 C 72.597656 4.351562 72.746094 4.609375 73.277344 4.664062 C 74.8125 4.820312 76.34375 5.035156 77.871094 5.21875 C 78.597656 5.304688 79.003906 5.597656 79.101562 6.140625 C 79.273438 7.082031 79.070312 7.722656 78.367188 7.976562 C 77.378906 8.339844 76.359375 8.609375 75.339844 8.863281 C 74.625 9.042969 73.886719 9.117188 73.160156 9.253906 C 72.675781 9.34375 72.410156 9.601562 72.414062 10.148438 C 72.433594 12.867188 72.371094 15.59375 72.449219 18.304688 C 72.488281 19.734375 72.703125 21.160156 73.308594 22.492188 C 73.792969 23.570312 74.625 23.996094 75.785156 23.800781 C 77.488281 23.515625 79.042969 22.914062 80.402344 21.832031 C 81.15625 21.230469 81.648438 20.496094 81.6875 19.480469 C 81.757812 17.628906 81.84375 15.773438 81.957031 13.914062 C 81.988281 13.382812 82.046875 12.828125 82.222656 12.328125 C 82.320312 12.050781 82.683594 11.6875 82.933594 11.679688 C 84.324219 11.636719 85.722656 11.621094 87.101562 11.742188 C 87.972656 11.820312 88.570312 12.636719 88.523438 13.5625 C 88.460938 14.859375 88.292969 16.148438 88.175781 17.441406 C 88.023438 19.039062 87.882812 20.632812 87.714844 22.230469 C 87.542969 23.84375 88.824219 24.640625 90.09375 24.660156 C 91.160156 24.671875 91.789062 24.273438 92.242188 23.140625 C 92.710938 21.964844 92.988281 20.691406 93.191406 19.441406 C 93.476562 17.65625 93.609375 15.851562 93.820312 14.058594 C 93.90625 13.324219 94.359375 12.761719 94.929688 12.644531 C 95.582031 12.503906 96.4375 12.769531 96.652344 13.371094 C 96.828125 13.867188 96.789062 14.484375 96.730469 15.035156 C 96.5 17.078125 96.164062 19.109375 95.976562 21.15625 C 95.855469 22.414062 96.558594 23.308594 97.769531 23.679688 C 98.378906 23.867188 99.003906 24.011719 99.628906 24.085938 C 100.730469 24.210938 101.511719 23.402344 101.742188 22.140625 C 101.933594 21.085938 101.960938 19.996094 102.054688 18.921875 C 102.167969 17.644531 102.183594 16.347656 102.398438 15.089844 C 102.714844 13.226562 103.914062 11.535156 106.132812 10.992188 C 107.464844 10.664062 108.808594 10.628906 110.136719 10.78125 C 112.164062 11.015625 114.285156 12.402344 114.933594 14.742188 C 115.421875 16.527344 115.226562 18.246094 114.648438 19.957031 C 113.980469 21.941406 112.753906 23.488281 111.039062 24.664062 C 110.882812 24.773438 110.789062 24.976562 110.667969 25.140625 C 110.882812 25.234375 111.101562 25.417969 111.3125 25.414062 C 113.363281 25.382812 115.289062 24.910156 117.058594 23.832031 C 117.457031 23.59375 117.890625 23.410156 118.308594 23.207031 C 118.699219 23.019531 118.925781 23.242188 118.820312 23.574219 C 118.640625 24.136719 118.421875 24.730469 118.066406 25.1875 C 116.550781 27.113281 114.488281 28.035156 112.097656 28.195312 C 111.082031 28.265625 110.054688 28.128906 109.035156 28.074219 C 108.265625 28.03125 107.496094 27.960938 106.722656 27.910156 C 106.332031 27.878906 106.105469 28.046875 106.011719 28.457031 C 105.394531 31 105.070312 33.589844 104.753906 36.1875 C 104.550781 37.820312 104.25 39.453125 103.863281 41.050781 C 103.648438 41.917969 102.976562 42.515625 102.039062 42.667969 C 101.484375 42.757812 101.074219 42.515625 100.886719 41.992188 C 100.730469 41.554688 100.582031 41.089844 100.542969 40.628906 C 100.359375 38.347656 100.433594 36.074219 100.734375 33.804688 C 100.886719 32.652344 100.988281 31.492188 101.121094 30.332031 C 101.214844 29.527344 101.332031 28.726562 101.40625 27.921875 C 101.464844 27.269531 101.320312 27.117188 100.703125 26.992188 C 99.417969 26.734375 98.136719 26.480469 96.855469 26.195312 C 95.992188 26.003906 95.3125 26.3125 94.726562 26.914062 C 93.945312 27.710938 93.082031 28.40625 92.058594 28.859375 C 90.824219 29.398438 89.511719 29.28125 88.242188 29.082031 C 86.40625 28.789062 84.9375 27.816406 83.898438 26.261719 C 83.570312 25.777344 83.335938 25.234375 83.082031 24.707031 C 82.945312 24.40625 82.8125 24.292969 82.46875 24.46875 C 81.25 25.097656 80.035156 25.738281 78.777344 26.273438 C 77.375 26.867188 75.882812 27.078125 74.394531 26.65625 C 72.941406 26.253906 71.824219 25.308594 70.898438 24.132812 C 70.652344 23.820312 70.410156 23.503906 70.023438 23.007812 Z M 111.875 17.160156 C 111.859375 16.957031 111.859375 16.753906 111.824219 16.550781 C 111.636719 15.402344 110.488281 14.886719 109.5625 15.582031 C 109.144531 15.894531 108.761719 16.308594 108.476562 16.746094 C 107.523438 18.21875 107.09375 19.90625 106.660156 21.582031 C 106.550781 22 106.476562 22.445312 106.484375 22.878906 C 106.503906 23.6875 106.972656 23.925781 107.640625 23.488281 C 109.035156 22.582031 110.066406 21.332031 110.933594 19.9375 C 111.464844 19.09375 111.898438 18.203125 111.875 17.160156 Z M 57.265625 17.96875 C 57.277344 17.171875 57.089844 16.429688 56.507812 15.855469 C 56.179688 15.535156 55.773438 15.394531 55.308594 15.542969 C 54.746094 15.71875 54.4375 16.140625 54.394531 16.839844 C 54.316406 18.195312 54.894531 19.359375 55.488281 20.507812 C 55.796875 21.097656 56.085938 21.082031 56.484375 20.53125 C 57.039062 19.769531 57.253906 18.902344 57.265625 17.96875 Z M 43.527344 17.710938 C 43.378906 17.222656 43.28125 16.707031 43.074219 16.246094 C 42.800781 15.660156 42.109375 15.394531 41.496094 15.554688 C 40.847656 15.726562 40.59375 16.035156 40.664062 16.839844 C 40.71875 17.539062 40.878906 18.234375 41.0625 18.914062 C 41.199219 19.414062 41.410156 19.902344 41.65625 20.355469 C 41.988281 20.96875 42.332031 20.976562 42.664062 20.386719 C 43.113281 19.566406 43.460938 18.710938 43.527344 17.710938 Z M 43.527344 17.710938 "/>
</g>
</svg>
